<?xml version="1.0" encoding="UTF-8"?>
<svg version="1.1" xmlns="http://www.w3.org/2000/svg" width="333" height="109">
<path d="M0 0 C109.89 0 219.78 0 333 0 C333 35.97 333 71.94 333 109 C223.11 109 113.22 109 0 109 C0 73.03 0 37.06 0 0 Z " fill="#161513" transform="translate(0,0)"/>
<path d="M0 0 C3.3 0 6.6 0 10 0 C10 5.94 10 11.88 10 18 C11.32 17.34 12.64 16.68 14 16 C18.65570345 15.27201728 22.14371687 15.57185844 26.375 17.6875 C30.24230917 21.09441522 31.8106863 23.60543724 32.51171875 28.76953125 C32.58399635 30.11652291 32.64234586 31.46432653 32.6875 32.8125 C32.72166016 33.50537109 32.75582031 34.19824219 32.79101562 34.91210938 C32.87286344 36.60752849 32.93812365 38.30373458 33 40 C34.65 39.67 36.3 39.34 38 39 C38 26.79 38 14.58 38 2 C41.3 2 44.6 2 48 2 C48 12.56 48 23.12 48 34 C51.3 32.68 54.6 31.36 58 30 C58.66 30 59.32 30 60 30 C60 28.35 60 26.7 60 25 C57.69 25 55.38 25 53 25 C53 22.03 53 19.06 53 16 C55.31 16 57.62 16 60 16 C59.9175 15.13375 59.835 14.2675 59.75 13.375 C60.13539509 8.17216624 62.73843873 5.40998025 66.125 1.625 C70.35901639 -0.7681397 74.24232645 -0.67855344 79 0 C82.125 1.5 82.125 1.5 84 3 C82.61725283 6.34163899 81.20955991 8.25766748 78 10 C75.375 9.625 75.375 9.625 73 9 C72.34 9.33 71.68 9.66 71 10 C70.59270772 12.32156597 70.25561323 14.6568787 70 17 C73.3 17 76.6 17 80 17 C80 18.32 80 19.64 80 21 C89.94880137 18.46724242 89.94880137 18.46724242 97.109375 11.70703125 C98.30399493 8.48507102 99.27765039 5.35768025 100 2 C102.97 2 105.94 2 109 2 C109.99 4.97 109.99 4.97 111 8 C111.969375 7.67 112.93875 7.34 113.9375 7 C122.49049294 4.63464324 130.15410416 5.90073981 138 10 C144.61333766 14.6441978 150.27017099 19.89142653 152 28 C153.297848 38.32484438 151.99332839 46.40203222 146 55 C141.55746379 60.35049982 135.68301505 63.33140483 129 65 C118.0385626 65.75567231 107.12815524 64.48133918 96.25 63.25 C94.58909605 63.067837 92.92812446 62.88628984 91.26708984 62.70532227 C87.00999284 62.2391155 82.75414469 61.76245539 78.49865723 61.28179932 C76.07189994 61.0081089 73.644892 60.73677469 71.21777344 60.46630859 C57.73242986 58.96238727 44.24972098 57.45827552 30.80102539 55.65112305 C26.99955678 55.15133806 23.19384561 54.70289751 19.38330078 54.27832031 C17.30128874 54.0351843 15.22585046 53.73702961 13.15234375 53.4296875 C2.62165467 52.50365171 -6.19396353 56.89470178 -15.63598633 61.08642578 C-16.7577124 61.58384277 -17.87943848 62.08125977 -19.03515625 62.59375 C-20.0394165 63.05458984 -21.04367676 63.51542969 -22.07836914 63.99023438 C-26.0841958 65.37471662 -29.4149022 65.72828818 -33.3125 63.9375 C-35.8773938 60.99262193 -36 58.86970167 -36 55 C-34.91332642 52.3970377 -33.58960805 50.36032711 -32 48 C-32.5775 47.731875 -33.155 47.46375 -33.75 47.1875 C-36.0325868 45.98280141 -37.9737942 44.59201885 -40 43 C-38.70700306 40.11562221 -37.34058637 38.12780579 -35 36 C-32.50638429 37.20381448 -30.31856917 38.45428722 -28 40 C-25.02550392 40.24219315 -25.02550392 40.24219315 -21.8125 40.125 C-20.72582031 40.10695312 -19.63914063 40.08890625 -18.51953125 40.0703125 C-17.68808594 40.04710937 -16.85664063 40.02390625 -16 40 C-15.66602213 37.12586875 -15.66602213 37.12586875 -16 34 C-18.74655553 31.0821964 -22.23031179 30.04789315 -25.9375 28.6875 C-31.26348311 26.48947522 -34.27993911 25.14868668 -37 20 C-37.916861 15.63949573 -38.00035203 11.86072307 -35.85546875 7.87109375 C-32.79327189 4.00092938 -29.94969584 1.89094525 -25 1 C-19.10089833 0.52426599 -14.26488257 1.16326726 -9 4 C-7.26953125 5.60546875 -7.26953125 5.60546875 -6 7 C-7.29299694 9.88437779 -8.65941363 11.87219421 -11 14 C-13 13 -15 12 -17 11 C-19.69013339 10.81295596 -22.29686177 10.91418609 -25 11 C-26.29633621 12.06645115 -26.29633621 12.06645115 -26.0625 14.5625 C-26.041875 15.366875 -26.02125 16.17125 -26 17 C-25.443125 17.24234375 -24.88625 17.4846875 -24.3125 17.734375 C-22.7114141 18.43755462 -21.11396972 19.14906246 -19.51953125 19.8671875 C-17.94111358 20.57686366 -16.35598439 21.27199263 -14.76171875 21.9453125 C-9.98390817 24.08677939 -7.24261531 26.04755786 -5 31 C-4.18156876 35.74860623 -4.52356033 39.04712066 -6.6875 43.375 C-8.9824578 45.98008723 -11.0121565 47.30540219 -14 49 C-11.98030444 49.34015925 -9.95917203 49.67179169 -7.9375 50 C-6.24947266 50.2784375 -6.24947266 50.2784375 -4.52734375 50.5625 C2.60627568 51.44729001 7.45485665 50.82462576 13.9375 48 C14.96327148 47.57074219 14.96327148 47.57074219 16.00976562 47.1328125 C17.67785269 46.43291583 19.33962483 45.71800007 21 45 C21.02697137 42.39576408 21.04682489 39.79180756 21.0625 37.1875 C21.07506836 36.08051758 21.07506836 36.08051758 21.08789062 34.95117188 C21.10259828 31.70077932 21.03531702 29.10595105 20 26 C16.59679066 25.32326553 16.59679066 25.32326553 13 25 C10.47871644 27.52128356 10.70646931 28.51239013 10.5859375 32.0078125 C10.54726562 32.99394531 10.50859375 33.98007812 10.46875 34.99609375 C10.42234375 36.54490234 10.42234375 36.54490234 10.375 38.125 C10.33632812 39.16527344 10.29765625 40.20554688 10.2578125 41.27734375 C10.16335671 43.85126402 10.08058229 46.42560805 10 49 C6.7 49 3.4 49 0 49 C0 32.83 0 16.66 0 0 Z " fill="#BF3CAC" transform="translate(157,25)"/>
<path d="M0 0 C2.97 0 5.94 0 9 0 C11.41110399 5.33887311 13.6937523 10.69865848 15.85839844 16.14160156 C17.08512806 19.21314784 18.33052674 22.27671761 19.578125 25.33984375 C20.46880596 27.53903984 21.35943031 29.73825885 22.25 31.9375 C22.93835938 33.62069336 22.93835938 33.62069336 23.640625 35.33789062 C24.07375 36.41103516 24.506875 37.48417969 24.953125 38.58984375 C25.34661133 39.55784912 25.74009766 40.52585449 26.14550781 41.52319336 C27 44 27 44 27 47 C23.7 47 20.4 47 17 47 C16.01 44.36 15.02 41.72 14 39 C7.73 38.67 1.46 38.34 -5 38 C-5.66 40.31 -6.32 42.62 -7 45 C-7.33 45.66 -7.66 46.32 -8 47 C-11.3 47 -14.6 47 -18 47 C-16.02526878 40.12227569 -13.75174025 33.50333692 -11.0625 26.875 C-10.72798828 26.03324219 -10.39347656 25.19148438 -10.04882812 24.32421875 C-8.18092279 19.68144828 -6.14037226 15.20340888 -3.85913086 10.75048828 C-2.78210238 8.55603128 -1.97862526 6.33160084 -1.25 4 C-0.8375 2.68 -0.425 1.36 0 0 Z " fill="#FBF5F9" transform="translate(257,27)"/>
<path d="M0 0 C3.3 0 6.6 0 10 0 C10.33 6.27 10.66 12.54 11 19 C12.32 17.535625 13.64 16.07125 15 14.5625 C16.24330078 13.20705078 16.24330078 13.20705078 17.51171875 11.82421875 C19.99351006 9.09206343 19.99351006 9.09206343 21.95703125 6.33203125 C26.5450358 0.25654732 26.5450358 0.25654732 31.16796875 -0.55859375 C34.16732006 -0.56210999 37.02955019 -0.40101072 40 0 C36.86228302 3.67342476 33.71002018 7.32712095 30.5 10.9375 C27.1078146 14.79809407 24.01823617 18.84301539 21 23 C21.54527344 23.59425781 22.09054688 24.18851563 22.65234375 24.80078125 C35.92963753 39.39445629 35.92963753 39.39445629 41 47 C36.39917003 47.93500738 32.58128017 48.12582523 28 47 C23.0366444 43.34539694 19.51108899 37.99181694 16 33 C14.35 30.69 12.7 28.38 11 26 C10.67 32.93 10.34 39.86 10 47 C6.7 47 3.4 47 0 47 C0 31.49 0 15.98 0 0 Z " fill="#F3F3F3" transform="translate(38,27)"/>
<path d="M0 0 C1.15628906 -0.02126953 1.15628906 -0.02126953 2.3359375 -0.04296875 C4.84334888 0.20948393 6.45761902 0.93556533 8.625 2.1875 C8.955 1.8575 9.285 1.5275 9.625 1.1875 C12.595 1.1875 15.565 1.1875 18.625 1.1875 C18.625 11.7475 18.625 22.3075 18.625 33.1875 C15.655 33.1875 12.685 33.1875 9.625 33.1875 C9.625 32.5275 9.625 31.8675 9.625 31.1875 C8.779375 31.6825 7.93375 32.1775 7.0625 32.6875 C2.0767173 34.86311427 -1.47057546 34.89699149 -6.5625 33 C-10.60856543 30.39253561 -12.73817045 27.14274432 -15.375 23.1875 C-16.06072317 17.66184704 -16.12317537 12.73927113 -13.6875 7.6875 C-9.52532998 3.18785673 -6.22578011 0.05170914 0 0 Z " fill="#F6F6F6" transform="translate(93.375,40.8125)"/>
<path d="M0 0 C1.73046875 1.60546875 1.73046875 1.60546875 3 3 C1.70700306 5.88437779 0.34058637 7.87219421 -2 10 C-4 9 -6 8 -8 7 C-10.69013339 6.81295596 -13.29686177 6.91418609 -16 7 C-17.29633621 8.06645115 -17.29633621 8.06645115 -17.0625 10.5625 C-17.041875 11.366875 -17.02125 12.17125 -17 13 C-16.443125 13.24234375 -15.88625 13.4846875 -15.3125 13.734375 C-13.7114141 14.43755462 -12.11396972 15.14906246 -10.51953125 15.8671875 C-8.94111358 16.57686366 -7.35598439 17.27199263 -5.76171875 17.9453125 C-0.98390817 20.08677939 1.75738469 22.04755786 4 27 C4.81843124 31.74860623 4.47643967 35.04712066 2.3125 39.375 C-1.59339336 43.80871678 -5.51422221 45.69638116 -11.33203125 46.203125 C-19.60489427 46.35946257 -24.65586695 44.57514723 -31 39 C-29.70700306 36.11562221 -28.34058637 34.12780579 -26 32 C-23.50638429 33.20381448 -21.31856917 34.45428722 -19 36 C-16.02550392 36.24219315 -16.02550392 36.24219315 -12.8125 36.125 C-11.72582031 36.10695312 -10.63914063 36.08890625 -9.51953125 36.0703125 C-8.68808594 36.04710937 -7.85664063 36.02390625 -7 36 C-6.66602213 33.12586875 -6.66602213 33.12586875 -7 30 C-9.74655553 27.0821964 -13.23031179 26.04789315 -16.9375 24.6875 C-22.26348311 22.48947522 -25.27993911 21.14868668 -28 16 C-28.916861 11.63949573 -29.00035203 7.86072307 -26.85546875 3.87109375 C-20.05911114 -4.71849806 -9.20933074 -4.96201191 0 0 Z " fill="#F3F3F3" transform="translate(148,29)"/>
<path d="M0 0 C3.3 0 6.6 0 10 0 C10 5.94 10 11.88 10 18 C11.32 17.34 12.64 16.68 14 16 C18.74203866 15.25851759 22.16954383 15.56212311 26.4375 17.8125 C29.36163836 20.30871568 30.90230774 21.82653733 31.22705078 25.72729492 C31.21657715 26.80084229 31.20610352 27.87438965 31.1953125 28.98046875 C31.18886719 30.14384766 31.18242187 31.30722656 31.17578125 32.50585938 C31.15902344 33.72080078 31.14226562 34.93574219 31.125 36.1875 C31.11597656 37.41404297 31.10695312 38.64058594 31.09765625 39.90429688 C31.07406017 42.93639295 31.04113841 45.96809938 31 49 C28.03 49 25.06 49 22 49 C21.93941406 47.59105469 21.87882812 46.18210938 21.81640625 44.73046875 C21.73199509 42.88280224 21.64734737 41.03514653 21.5625 39.1875 C21.52318359 38.25873047 21.48386719 37.32996094 21.44335938 36.37304688 C21.40146484 35.48037109 21.35957031 34.58769531 21.31640625 33.66796875 C21.27974854 32.84578857 21.24309082 32.0236084 21.20532227 31.17651367 C21.06572228 28.82094822 21.06572228 28.82094822 20 26 C16.59679066 25.32326553 16.59679066 25.32326553 13 25 C10.47871644 27.52128356 10.70646931 28.51239013 10.5859375 32.0078125 C10.54726562 32.99394531 10.50859375 33.98007812 10.46875 34.99609375 C10.42234375 36.54490234 10.42234375 36.54490234 10.375 38.125 C10.31699219 39.68541016 10.31699219 39.68541016 10.2578125 41.27734375 C10.16335671 43.85126402 10.08058229 46.42560805 10 49 C6.7 49 3.4 49 0 49 C0 32.83 0 16.66 0 0 Z " fill="#F2F2F2" transform="translate(157,25)"/>
<path d="M0 0 C3.125 1.5 3.125 1.5 5 3 C3.61725283 6.34163899 2.20955991 8.25766748 -1 10 C-3.625 9.625 -3.625 9.625 -6 9 C-6.99 9.495 -6.99 9.495 -8 10 C-8.40729228 12.32156597 -8.74438677 14.6568787 -9 17 C-6.03 17 -3.06 17 0 17 C0.33 19.64 0.66 22.28 1 25 C-2.3 25 -5.6 25 -9 25 C-9 32.92 -9 40.84 -9 49 C-11.97 49 -14.94 49 -18 49 C-18 40.75 -18 32.5 -18 24 C-20.31 24 -22.62 24 -25 24 C-25 21.69 -25 19.38 -25 17 C-22.69 17 -20.38 17 -18 17 C-18.10441406 16.14728516 -18.10441406 16.14728516 -18.2109375 15.27734375 C-18.54598209 10.49896974 -18.30946063 7.7177805 -15.125 4 C-10.62217873 -0.6985961 -6.29491901 -0.59292801 0 0 Z " fill="#FAF8FA" transform="translate(236,25)"/>
<path d="M0 0 C3.3 0 6.6 0 10 0 C10 15.51 10 31.02 10 47 C6.7 47 3.4 47 0 47 C0 31.49 0 15.98 0 0 Z " fill="#F2F0F2" transform="translate(195,27)"/>
<path d="M0 0 C0.53375244 0.1546875 1.06750488 0.309375 1.61743164 0.46875 C4.46153015 1.10290907 7.21313216 1.30533929 10.12109375 1.5 C11.30380859 1.5825 12.48652344 1.665 13.70507812 1.75 C14.93677734 1.8325 16.16847656 1.915 17.4375 2 C19.87389869 2.16370553 22.3101078 2.33026336 24.74609375 2.5 C26.36535767 2.60828125 26.36535767 2.60828125 28.01733398 2.71875 C30.74139642 2.97561502 33.33136608 3.40690159 36 4 C32.40755878 7.59244122 27.29688845 8.9541807 22.64306641 10.85058594 C20.76629169 11.61833541 18.89691036 12.40239052 17.02734375 13.1875 C15.83753906 13.67476562 14.64773437 14.16203125 13.421875 14.6640625 C11.79137207 15.33622803 11.79137207 15.33622803 10.12792969 16.02197266 C6.02972247 17.30338212 2.64724824 17.75684379 -1.3125 15.9375 C-3.8773938 12.99262193 -4 10.86970167 -4 7 C-2.91332642 4.3970377 -1.58960805 2.36032711 0 0 Z " fill="#B423DA" transform="translate(125,73)"/>
<path d="M0 0 C2.375 1.0625 2.375 1.0625 4 3 C4.59706743 7.62727259 4.5886852 9.86972441 2.4375 14 C0 16 0 16 -3.5 16.5625 C-7 16 -7 16 -9.4375 14.5625 C-11.75128292 10.76789601 -11.91094826 7.32502392 -11 3 C-7.59524629 -1.20587223 -5.06391762 -1.61614392 0 0 Z " fill="#1C1B19" transform="translate(99,50)"/>
<path d="M0 0 C2 1 2 1 3.0703125 3.6171875 C3.59238281 5.22980469 3.59238281 5.22980469 4.125 6.875 C4.47820312 7.94492187 4.83140625 9.01484375 5.1953125 10.1171875 C6 13 6 13 6 16 C2.37 16 -1.26 16 -5 16 C-3.50723624 10.60308488 -1.80304155 5.30094216 0 0 Z " fill="#C84EA6" transform="translate(261,41)"/>
</svg>
